<svg id="Layer_1" data-name="Layer 1" xmlns="http://www.w3.org/2000/svg" viewBox="0 0 59.42 126.86"><defs><style>.cls-1{fill:#5bbca8;}.cls-1,.cls-3{fill-rule:evenodd;}.cls-2{fill:none;stroke:#4cb8a1;}.cls-3{fill:#4cb8a1;}.cls-4{fill:#fff;}</style></defs><path class="cls-1" d="M427.93,292.54l-1.82-1.84a2,2,0,0,0-2.91,0l-2,2a2.07,2.07,0,0,0,0,2.92l1.15-1.13a1.09,1.09,0,0,1,.32-1.06l1.28-1.27a1,1,0,0,1,1.46,0l1.09,1.1a1.05,1.05,0,0,1,0,1.47L425.18,296a1.15,1.15,0,0,1-1.06.32L423,297.47a2,2,0,0,0,2.92,0l2-2A2.07,2.07,0,0,0,427.93,292.54Zm-7.38,7.37a1.21,1.21,0,0,1-.34,1.08l-1.2,1.2a1,1,0,0,1-1.48,0l-1.12-1.12a1.06,1.06,0,0,1,0-1.49l1.2-1.2a1.07,1.07,0,0,1,1.08-.31l1.15-1.17a2.09,2.09,0,0,0-3,0l-1.94,1.94a2.1,2.1,0,0,0,0,3l1.85,1.88a2.1,2.1,0,0,0,3,0l1.95-1.94a2.12,2.12,0,0,0,0-3Zm-.27-.53a.7.7,0,0,1-1,0,.73.73,0,0,1,0-1l3.32-3.38a.71.71,0,0,1,1,0,.73.73,0,0,1,0,1Z" transform="translate(-383.01 -276.7)"/><path class="cls-2" d="M420.92,277.2h1a20,20,0,0,1,20,20h0a20,20,0,0,1-20,20h-1a20,20,0,0,1-20-20h0A20,20,0,0,1,420.92,277.2Z" transform="translate(-383.01 -276.7)"/><path class="cls-3" d="M403.41,363.56a20,20,0,1,1-20.4,20A20.2,20.2,0,0,1,403.41,363.56Z" transform="translate(-383.01 -276.7)"/><rect class="cls-4" x="14.4" y="101.36" width="12" height="11"/></svg>