<svg id="Layer_1" data-name="Layer 1" xmlns="http://www.w3.org/2000/svg" viewBox="0 0 311.92 311.99"><path d="M402.79,357.79A109.67,109.67,0,1,0,358.54,402l97.39,97.5a28.84,28.84,0,0,0,40.71,0l3.53-3.53a28.74,28.74,0,0,0,0-40.71Zm-96.27-139A87.18,87.18,0,1,1,245,244.34a87.09,87.09,0,0,1,61.54-25.54Zm177.8,261.35-3.52,3.53a6.33,6.33,0,0,1-9,0l-94.47-94.47a102.52,102.52,0,0,0,12.54-12.55l94.47,94.48a6.34,6.34,0,0,1,1.91,4.53,6.15,6.15,0,0,1-1.91,4.48Z" transform="translate(-196.71 -195.95)"/></svg>